<?xml version="1.0" standalone="no"?>
<!DOCTYPE svg PUBLIC "-//W3C//DTD SVG 20010904//EN"
 "http://www.w3.org/TR/2001/REC-SVG-20010904/DTD/svg10.dtd">
<svg version="1.0" xmlns="http://www.w3.org/2000/svg"
 width="1024.000000pt" height="1024.000000pt" viewBox="0 0 1024.000000 1024.000000"
 preserveAspectRatio="xMidYMid meet">
<metadata>
Created by potrace 1.10, written by Peter Selinger 2001-2011
</metadata>
<g transform="translate(0.000000,1024.000000) scale(0.100000,-0.100000)"
fill="#000000" stroke="none">
<path d="M4519,2081 L4509,2015 L4400,1899 L4382,1803 L4407,1792 L4463,1745 L4516,1718 L4539,1645 L4603,1637 L4656,1613 L4725,1537 L4873,1494 L4912,1458 L5057,1450 L5164,1385 L5236,1305 L5288,1166 L5288,1100 L5298,1027 L5290,943 L5378,887 L5451,916 L5514,929 L5543,955 L5580,997 L5640,1015 L5678,941 L5715,928 L5744,903 L5754,850 L5787,816 L5771,679 L5789,657 L5750,615 L5800,533 L5889,557 L5953,597 L6005,633 L6023,664 L6055,711 L6032,791 L6106,852 L6312,857 L6478,934 L6539,866 L6582,869 L6622,753 L6691,788 L6747,814 L6812,788 L6840,812 L6879,818 L6906,870 L6944,865 L6952,662 L6971,615 L7061,575 L7105,471 L7263,492 L7265,348 L7315,219 L7284,86 L7326,5 L7508,21 L7516,82 L7541,138 L7618,114 L7669,114 L7696,31 L7715,58 L7779,55 L7871,112 L7950,109 L7986,163 L8077,204 L8153,213 L8205,282 L8332,289 L8365,244 L8425,256 L8752,494 L9047,494 L9112,486 L9194,467 L9219,356 L9297,358 L9332,345 L9449,403 L9499,395 L9540,434 L9544,473 L9606,473 L9669,495 L9745,492 L9814,504 L9846,557 L9886,725 L9905,809 L9907,848 L9840,938 L9798,1012 L9783,1067 L9786,1115 L9781,1168 L9797,1211 L9856,1277 L9875,1342 L9928,1387 L9936,1442 L9961,1518 L9973,1577 L10021,1599 L10098,1670 L10137,1721 L10137,1777 L10141,1856 L10219,1862 L10235,1908 L10184,1967 L10178,1999 L10159,2075 L10164,2130 L10120,2167 L10083,2186 L10110,2243 L10127,2288 L10124,2325 L10132,2342 L10141,2394 L10141,2434 L10165,2486 L10111,2500 L9974,2544 L9914,2546 L9878,2527 L9813,2578 L9722,2573 L9693,2491 L9638,2470 L9595,2461 L9561,2442 L9513,2453 L9468,2457 L9443,2494 L9413,2515 L9363,2573 L9313,2588 L9300,2628 L9365,2671 L9431,2655 L9516,2696 L9566,2686 L9617,2719 L9623,2802 L9676,2860 L9676,2884 L9654,2918 L9623,2934 L9626,2997 L9586,3044 L9542,3090 L9520,3128 L9442,3128 L9416,3148 L9361,3111 L9354,3188 L9328,3246 L9373,3273 L9395,3331 L9397,3369 L9403,3425 L9353,3452 L9351,3499 L9330,3523 L9343,3570 L9369,3610 L9377,3673 L9450,3631 L9467,3681 L9445,3717 L9406,3733 L9402,3765 L9424,3808 L9470,3808 L9469,3844 L9397,3874 L9397,3902 L9437,3927 L9405,3950 L9187,3952 L9113,4014 L9038,4118 L8956,4202 L8897,4255 L8831,4306 L8779,4309 L8776,4498 L8795,4532 L8824,4548 L8843,4580 L8848,4650 L8785,4598 L8747,4583 L8693,4556 L8616,4530 L8535,4547 L8483,4564 L8437,4589 L8383,4589 L8345,4582 L8288,4617 L8208,4636 L8174,4661 L8174,4713 L8108,4727 L8078,4743 L8035,4705 L7997,4688 L7901,4706 L7818,4700 L7762,4722 L7688,4706 L7611,4698 L7515,4710 L7473,4714 L7419,4782 L7372,4749 L7326,4775 L7237,4807 L7206,4890 L7175,4985 L7062,5031 L7004,5090 L6948,5131 L6895,5152 L6892,5188 L6858,5236 L6824,5224 L6775,5169 L6738,5172 L6660,5159 L6639,5127 L6499,5159 L6288,5142 L6194,5061 L6118,5056 L6062,5062 L5950,4995 L5871,5015 L5791,5015 L5717,4980 L5611,4980 L5536,4935 L5466,4941 L5430,4921 L5360,4918 L5284,4918 L5235,4891 L5141,4923 L5082,4925 L5016,4909 L4917,4872 L4851,4839 L4693,4831 L4472,4821 L4439,4770 L4378,4738 L4337,4771 L4272,4717 L4109,4726 L4054,4690 L3959,4668 L3894,4626 L3869,4581 L3836,4513 L3786,4492 L3743,4469 L3731,4434 L3731,4395 L3756,4364 L3694,4253 L3634,4281 L3601,4239 L3537,4208 L3554,4156 L3525,4113 L3518,3986 L3620,3975 L3650,3888 L3624,3862 L3506,3873 L3420,3916 L3337,3940 L3253,3953 L3199,4001 L3115,4032 L3034,4043 L3020,4091 L2987,4080 L2917,4040 L2834,4030 L2797,4016 L2700,4046 L2640,3991 L2561,4084 L2449,4034 L2225,4081 L2168,4137 L2107,4192 L2104,4249 L2073,4311 L2054,4360 L1996,4450 L1950,4445 L1853,4445 L1793,4448 L1715,4424 L1656,4388 L1605,4393 L1655,4312 L1588,4318 L1540,4248 L1480,4256 L1390,4287 L1278,4266 L1243,4191 L1285,4111 L1232,4062 L1180,4016 L1156,3996 L1115,3976 L1034,4091 L995,4117 L951,4117 L936,4169 L903,4209 L783,4260 L714,4239 L667,4199 L624,4150 L575,4128 L528,4121 L471,4090 L457,4044 L480,3981 L480,3957 L455,3912 L410,3909 L343,3862 L292,3857 L191,3811 L111,3827 L142,3663 L74,3595 L56,3503 L23,3471 L74,3432 L5,3390 L106,3287 L126,3193 L189,3204 L229,3169 L193,3080 L186,3033 L108,2998 L94,2954 L151,2930 L208,2938 L271,2914 L312,2856 L379,2792 L416,2792 L428,2842 L452,2858 L490,2879 L559,2868 L603,2911 L638,2944 L648,2994 L704,2999 L734,3048 L790,3072 L787,3123 L749,3143 L766,3179 L767,3237 L854,3221 L948,3205 L948,3236 L917,3307 L917,3360 L876,3398 L874,3439 L963,3436 L1163,3276 L1183,3232 L1242,3180 L1303,3109 L1295,3052 L1239,2951 L1262,2894 L1229,2849 L1318,2829 L1318,2893 L1421,2931 L1493,2866 L1544,2881 L1605,2875 L1626,2905 L1678,2920 L1688,2963 L1733,2958 L1860,2922 L1873,2964 L1825,3026 L1902,3034 L1975,3131 L1948,3209 L2152,3216 L2247,3147 L2326,3153 L2302,3212 L2390,3210 L2476,3106 L2563,3106 L2536,3073 L2595,3001 L2777,2986 L2785,2905 L2877,2838 L2922,2859 L3056,2854 L3139,2878 L3167,2826 L3345,2803 L3619,2823 L3606,2777 L3595,2641 L3704,2586 L3690,2662 L3794,2644 L3892,2663 L3952,2653 L3952,2704 L4029,2788 L4108,2755 L4177,2688 L4353,2695 L4391,2740 L4449,2809 L4422,2861 L4419,2908 L4434,2943 L4497,2946 L4628,3096 L4683,3082 L4708,3101 L4777,3051 L4735,2995 L4773,2937 L4758,2889 L4790,2858 L4793,2816 L4830,2778 L4833,2695 L4721,2611 L4682,2628 L4577,2636 L4563,2580 L4621,2508 L4621,2466 L4713,2362 L4706,2312 L4659,2262 L4610,2160 L4569,2124 L4529,2114 L4519,2081 Z M4519,2081"/>
</g>
</svg>
