<?xml version="1.0" standalone="no"?>
<!DOCTYPE svg PUBLIC "-//W3C//DTD SVG 20010904//EN"
 "http://www.w3.org/TR/2001/REC-SVG-20010904/DTD/svg10.dtd">
<svg version="1.0" xmlns="http://www.w3.org/2000/svg"
 width="1024.000000pt" height="1024.000000pt" viewBox="0 0 1024.000000 1024.000000"
 preserveAspectRatio="xMidYMid meet">
<g transform="translate(0.000000,1024.000000) scale(0.100000,-0.100000)"
fill="#000000" stroke="none">
<path d="M4519,4581 L4509,4515 L4400,4399 L4382,4303 L4407,4292 L4463,4245 L4516,4218 L4539,4145 L4603,4137 L4656,4113 L4725,4037 L4873,3994 L4912,3958 L5057,3950 L5164,3885 L5236,3805 L5288,3666 L5288,3600 L5298,3527 L5290,3443 L5378,3387 L5451,3416 L5514,3429 L5543,3455 L5580,3497 L5640,3515 L5678,3441 L5715,3428 L5744,3403 L5754,3350 L5787,3316 L5771,3179 L5789,3157 L5750,3115 L5800,3033 L5889,3057 L5953,3097 L6005,3133 L6023,3164 L6055,3211 L6032,3291 L6106,3352 L6312,3357 L6478,3434 L6539,3366 L6582,3369 L6622,3253 L6691,3288 L6747,3314 L6812,3288 L6840,3312 L6879,3318 L6906,3370 L6944,3365 L6952,3162 L6971,3115 L7061,3075 L7105,2971 L7263,2992 L7265,2848 L7315,2719 L7284,2586 L7326,2505 L7508,2521 L7516,2582 L7541,2638 L7618,2614 L7669,2614 L7696,2531 L7715,2558 L7779,2555 L7871,2612 L7950,2609 L7986,2663 L8077,2704 L8153,2713 L8205,2782 L8332,2789 L8365,2744 L8425,2756 L8752,2994 L9047,2994 L9112,2986 L9194,2967 L9219,2856 L9297,2858 L9332,2845 L9449,2903 L9499,2895 L9540,2934 L9544,2973 L9606,2973 L9669,2995 L9745,2992 L9814,3004 L9846,3057 L9886,3225 L9905,3309 L9907,3348 L9840,3438 L9798,3512 L9783,3567 L9786,3615 L9781,3668 L9797,3711 L9856,3777 L9875,3842 L9928,3887 L9936,3942 L9961,4018 L9973,4077 L10021,4099 L10098,4170 L10137,4221 L10137,4277 L10141,4356 L10219,4362 L10235,4408 L10184,4467 L10178,4499 L10159,4575 L10164,4630 L10120,4667 L10083,4686 L10110,4743 L10127,4788 L10124,4825 L10132,4842 L10141,4894 L10141,4934 L10165,4986 L10111,5000 L9974,5044 L9914,5046 L9878,5027 L9813,5078 L9722,5073 L9693,4991 L9638,4970 L9595,4961 L9561,4942 L9513,4953 L9468,4957 L9443,4994 L9413,5015 L9363,5073 L9313,5088 L9300,5128 L9365,5171 L9431,5155 L9516,5196 L9566,5186 L9617,5219 L9623,5302 L9676,5360 L9676,5384 L9654,5418 L9623,5434 L9626,5497 L9586,5544 L9542,5590 L9520,5628 L9442,5628 L9416,5648 L9361,5611 L9354,5688 L9328,5746 L9373,5773 L9395,5831 L9397,5869 L9403,5925 L9353,5952 L9351,5999 L9330,6023 L9343,6070 L9369,6110 L9377,6173 L9450,6131 L9467,6181 L9445,6217 L9406,6233 L9402,6265 L9424,6308 L9470,6308 L9469,6344 L9397,6374 L9397,6402 L9437,6427 L9405,6450 L9187,6452 L9113,6514 L9038,6618 L8956,6702 L8897,6755 L8831,6806 L8779,6809 L8776,6998 L8795,7032 L8824,7048 L8843,7080 L8848,7150 L8785,7098 L8747,7083 L8693,7056 L8616,7030 L8535,7047 L8483,7064 L8437,7089 L8383,7089 L8345,7082 L8288,7117 L8208,7136 L8174,7161 L8174,7213 L8108,7227 L8078,7243 L8035,7205 L7997,7188 L7901,7206 L7818,7200 L7762,7222 L7688,7206 L7611,7198 L7515,7210 L7473,7214 L7419,7282 L7372,7249 L7326,7275 L7237,7307 L7206,7390 L7175,7485 L7062,7531 L7004,7590 L6948,7631 L6895,7652 L6892,7688 L6858,7736 L6824,7724 L6775,7669 L6738,7672 L6660,7659 L6639,7627 L6499,7659 L6288,7642 L6194,7561 L6118,7556 L6062,7562 L5950,7495 L5871,7515 L5791,7515 L5717,7480 L5611,7480 L5536,7435 L5466,7441 L5430,7421 L5360,7418 L5284,7418 L5235,7391 L5141,7423 L5082,7425 L5016,7409 L4917,7372 L4851,7339 L4693,7331 L4472,7321 L4439,7270 L4378,7238 L4337,7271 L4272,7217 L4109,7226 L4054,7190 L3959,7168 L3894,7126 L3869,7081 L3836,7013 L3786,6992 L3743,6969 L3731,6934 L3731,6895 L3756,6864 L3694,6753 L3634,6781 L3601,6739 L3537,6708 L3554,6656 L3525,6613 L3518,6486 L3620,6475 L3650,6388 L3624,6362 L3506,6373 L3420,6416 L3337,6440 L3253,6453 L3199,6501 L3115,6532 L3034,6543 L3020,6591 L2987,6580 L2917,6540 L2834,6530 L2797,6516 L2700,6546 L2640,6491 L2561,6584 L2449,6534 L2225,6581 L2168,6637 L2107,6692 L2104,6749 L2073,6811 L2054,6860 L1996,6950 L1950,6945 L1853,6945 L1793,6948 L1715,6924 L1656,6888 L1605,6893 L1655,6812 L1588,6818 L1540,6748 L1480,6756 L1390,6787 L1278,6766 L1243,6691 L1285,6611 L1232,6562 L1180,6516 L1156,6496 L1115,6476 L1034,6591 L995,6617 L951,6617 L936,6669 L903,6709 L783,6760 L714,6739 L667,6699 L624,6650 L575,6628 L528,6621 L471,6590 L457,6544 L480,6481 L480,6457 L455,6412 L410,6409 L343,6362 L292,6357 L191,6311 L111,6327 L142,6163 L74,6095 L56,6003 L23,5971 L74,5932 L5,5890 L106,5787 L126,5693 L189,5704 L229,5669 L193,5580 L186,5533 L108,5498 L94,5454 L151,5430 L208,5438 L271,5414 L312,5356 L379,5292 L416,5292 L428,5342 L452,5358 L490,5379 L559,5368 L603,5411 L638,5444 L648,5494 L704,5499 L734,5548 L790,5572 L787,5623 L749,5643 L766,5679 L767,5737 L854,5721 L948,5705 L948,5736 L917,5807 L917,5860 L876,5898 L874,5939 L963,5936 L1163,5776 L1183,5732 L1242,5680 L1303,5609 L1295,5552 L1239,5451 L1262,5394 L1229,5349 L1318,5329 L1318,5393 L1421,5431 L1493,5366 L1544,5381 L1605,5375 L1626,5405 L1678,5420 L1688,5463 L1733,5458 L1860,5422 L1873,5464 L1825,5526 L1902,5534 L1975,5631 L1948,5709 L2152,5716 L2247,5647 L2326,5653 L2302,5712 L2390,5710 L2476,5606 L2563,5606 L2536,5573 L2595,5501 L2777,5486 L2785,5405 L2877,5338 L2922,5359 L3056,5354 L3139,5378 L3167,5326 L3345,5303 L3619,5323 L3606,5277 L3595,5141 L3704,5086 L3690,5162 L3794,5144 L3892,5163 L3952,5153 L3952,5204 L4029,5288 L4108,5255 L4177,5188 L4353,5195 L4391,5240 L4449,5309 L4422,5361 L4419,5408 L4434,5443 L4497,5446 L4628,5596 L4683,5582 L4708,5601 L4777,5551 L4735,5495 L4773,5437 L4758,5389 L4790,5358 L4793,5316 L4830,5278 L4833,5195 L4721,5111 L4682,5128 L4577,5136 L4563,5080 L4621,5008 L4621,4966 L4713,4862 L4706,4812 L4659,4762 L4610,4660 L4569,4624 L4529,4614 L4519,4581 Z M4519,4581"/>
</g>
</svg>
